{"title":"Berlin - Sex Parade (2003)","uid":6712073,"size":1484230368,"categoryP":"porn","categoryS":"movies","magnet":"?xt=urn:btih:fa216c42f2295aa2757f97ec4eaff67fd7ef06cd&amp;dn=Berlin+-+Sex+Parade+%282003%29&amp;tr=udp%3A%2F%2Ftracker.openbittorrent.com%3A80&amp;tr=udp%3A%2F%2Fopen.demonii.com%3A1337&amp;tr=udp%3A%2F%2Ftracker.coppersurfer.tk%3A6969&amp;tr=udp%3A%2F%2Fexodus.desync.com%3A6969","seeders":0,"leechers":0,"uploader":"silviuss","files":2,"time":1317391608,"description":"Berlin - Sex Parade (2003)\n\nCover: &lt;a href=&quot;\nhttp://imagebb.org/view.php?filename=641v4456o.jpg&quot; rel=&quot;nofollow&quot; target=&quot;_NEW&quot;&gt;\nhttp://imagebb.org/view.php?filename=641v4456o.jpg&lt;/a&gt;\n\nPreview: &lt;a href=&quot;\nhttp://imagebb.org/view.php?filename=695Berlin_Sex_Parade_2003.jpg&quot; rel=&quot;nofollow&quot; target=&quot;_NEW&quot;&gt;\nhttp://imagebb.org/view.php?filename=695Berlin_Sex_Parade_2003.jpg&lt;/a&gt; - CD1 &lt;a href=&quot;\nhttp://imagebb.org/view.php?filename=499Berlin_Sex_Parade_2003.jpg&quot; rel=&quot;nofollow&quot; target=&quot;_NEW&quot;&gt;\nhttp://imagebb.org/view.php?filename=499Berlin_Sex_Parade_2003.jpg&lt;/a&gt; - CD2\n\nInfo CD1:\nFormat                           : AVI\nFormat/Info                      : Audio Video Interleave\nFile size                        : 708 MiB\nDuration                         : 42mn 13s\nOverall bit rate mode            : Variable\nOverall bit rate                 : 2 345 Kbps\n\nVideo\nID                               : 0\nFormat                           : MPEG-4 Visual\nFormat settings, BVOP            : 1\nFormat settings, QPel            : No\nFormat settings, GMC             : No warppoints\nFormat settings, Matrix          : Default (H.263)\nMuxing mode                      : Packed bitstream\nCodec ID                         : DX50\nCodec ID/Hint                    : DivX 5\nDuration                         : 42mn 13s\nBit rate                         : 2 201 Kbps\nWidth                            : 480 pixels\nHeight                           : 352 pixels\nDisplay aspect ratio             : 4:3\nFrame rate                       : 25.000 fps\nColor space                      : YUV\nChroma subsampling               : 4:2:0\nBit depth                        : 8 bits\nScan type                        : Progressive\nCompression mode                 : Lossy\nBits/(Pixel*Frame)               : 0.521\nStream size                      : 665 MiB (94%)\nTitle                            : Video\nWriting library                  : DivX 5.2.1 Alpha (UTC 2004-09-08)\n\nAudio\nID                               : 1\nFormat                           : MPEG Audio\nFormat version                   : Version 1\nFormat profile                   : Layer 3\nMode                             : Joint stereo\nMode extension                   : MS Stereo\nCodec ID                         : 55\nCodec ID/Hint                    : MP3\nDuration                         : 42mn 13s\nBit rate mode                    : Variable\nBit rate                         : 128 Kbps\nChannel(s)                       : 2 channels\nSampling rate                    : 44.1 KHz\nCompression mode                 : Lossy\nStream size                      : 39.8 MiB (6%)\nAlignment                        : Aligned on interleaves\nInterleave, duration             : 26 ms (0.65 video frame)\nInterleave, preload duration     : 464 ms\nTitle                            : Audio\n","torrent":{"xt":"urn:btih:fa216c42f2295aa2757f97ec4eaff67fd7ef06cd","amp;dn":"Berlin+-+Sex+Parade+%282003%29","amp;tr":["udp%3A%2F%2Ftracker.openbittorrent.com%3A80","udp%3A%2F%2Fopen.demonii.com%3A1337","udp%3A%2F%2Ftracker.coppersurfer.tk%3A6969","udp%3A%2F%2Fexodus.desync.com%3A6969"],"infoHash":"fa216c42f2295aa2757f97ec4eaff67fd7ef06cd","infoHashBuffer":{"type":"Buffer","data":[250,33,108,66,242,41,90,162,117,127,151,236,78,175,246,127,215,239,6,205]},"announce":[],"urlList":[]}}